<svg width="53" height="58" viewBox="0 0 53 58" fill="none" xmlns="http://www.w3.org/2000/svg">
<path d="M26.3916 43.476C25.3494 45.0279 22.4003 48.024 20.2493 46.9477C13.5761 43.6111 17.2334 33.6115 16.5088 32.5254C15.4178 30.8874 13.169 32.9179 12.5029 26.2482C12.2896 24.1234 12.7049 22.3859 13.1707 20.3715C13.3041 19.7886 13.169 19.5721 13.5711 19.1699C13.7405 19.0005 14.3463 19.1162 14.2389 18.9028C12.2049 14.8352 12.3156 8.84627 15.8413 4.87965C16.745 3.86194 19.0508 3.02172 20.3827 3.14386C20.9333 3.19269 21.9624 4.50187 22.2523 4.21204C24.7991 1.66369 27.3703 0.59225 31.2003 1.13937C37.3035 2.01215 35.9259 4.16318 37.8783 7.41659C38.4727 8.40661 41.9525 8.55316 43.0875 11.9579C45.1817 18.2402 38.4125 22.2084 38.4125 22.7751C38.4125 25.1621 39.7282 26.8653 39.0801 29.4529C38.6616 31.1284 37.5071 33.1687 36.1425 34.2614C35.9552 34.4111 35.4749 34.2889 35.4749 34.5284C35.4749 35.4337 39.1778 39.6479 35.8755 43.6096C33.4979 46.4607 27.6373 48.1868 26.6603 44.2771" stroke="#BA0C2F" stroke-width="2" stroke-linecap="round" stroke-linejoin="round"/>
<path d="M25.8784 36.8139C33.7355 35.7078 27.8109 43.4596 25.8784 42.535C24.6766 41.9592 24.6901 38.8432 24.4884 37.8781" stroke="#BA0C2F" stroke-width="2" stroke-linecap="round" stroke-linejoin="round"/>
<path d="M23.107 26.7548C23.107 25.4125 23.107 24.0702 23.107 22.7279" stroke="#BA0C2F" stroke-width="2" stroke-linecap="round" stroke-linejoin="round"/>
<path d="M31.868 27.0234C32.0607 25.5969 31.9997 24.1609 31.9997 22.7279" stroke="#BA0C2F" stroke-width="2" stroke-linecap="round" stroke-linejoin="round"/>
<path d="M10.8742 19.2562C5.86448 19.1755 4.09007 26.489 4.67834 30.6304C4.77316 31.2867 5.92876 32.3059 5.86608 32.7477C5.73108 33.6881 1.48636 34.558 1.03108 38.4521C0.787371 40.5367 2.02318 43.1674 3.09681 44.7832C3.40058 45.2396 4.27491 44.9122 4.01937 44.7832C0.31307 42.9239 1.33178 53.6553 6.44443 55.4874C9.67974 56.647 12.6775 51.1759 14.5662 49.281C15.074 48.7697 19.9375 56.4364 20.6511 49.281" stroke="#BA0C2F" stroke-width="2" stroke-linecap="round" stroke-linejoin="round"/>
<path d="M44.0117 20.6008C49.8851 24.0879 44.7762 28.8001 47.969 29.9449C51.1616 31.0897 52.8564 38.9595 49.8851 44.1037C49.8433 44.1761 52.2917 46.9933 51.1616 49.3428C50.1654 51.4125 44.7995 54.8702 43.5012 51.7492C43.2974 51.2606 42.8677 50.6529 43.1184 50.1921C44.0273 48.5125 45.9593 54.311 43.3736 55.8543C41.0184 57.2611 32.788 55.2587 34.309 51.3246" stroke="#BA0C2F" stroke-width="2" stroke-linecap="round" stroke-linejoin="round"/>
</svg>
